<?xml version="1.0" standalone="no"?>
<!DOCTYPE svg PUBLIC "-//W3C//DTD SVG 20010904//EN"
 "http://www.w3.org/TR/2001/REC-SVG-20010904/DTD/svg10.dtd">
<svg version="1.0" xmlns="http://www.w3.org/2000/svg"
 width="296.000000pt" height="59.000000pt" viewBox="0 0 296.000000 59.000000"
 preserveAspectRatio="xMidYMid meet">

<g transform="translate(0.000000,59.000000) scale(0.100000,-0.100000)"
fill="#000000" stroke="none">
<path d="M196 550 c-86 -34 -149 -110 -182 -220 -13 -43 -12 -53 7 -111 29
-89 69 -143 137 -182 61 -36 72 -34 72 17 0 22 -4 27 -16 22 -30 -12 -64 7
-94 50 -35 52 -18 61 30 14 35 -35 65 -38 80 -11 14 26 13 31 -5 31 -30 0 -75
30 -91 61 -11 22 -14 46 -10 78 19 160 21 164 76 141 36 -15 171 -16 198 -1
12 6 30 11 41 11 18 0 21 -6 21 -43 0 -24 5 -48 12 -55 14 -14 13 -87 -1 -124
-11 -29 -64 -68 -92 -68 -13 0 -15 -10 -12 -57 7 -110 5 -107 69 -70 70 39
116 100 143 187 19 59 19 69 7 111 -23 76 -52 124 -101 167 -81 71 -190 91
-289 52z"/>
<path d="M843 460 c-74 -17 -112 -67 -133 -176 -10 -51 -9 -71 4 -123 20 -77
44 -113 93 -137 48 -23 154 -23 206 -1 l38 16 -3 113 -3 113 -77 3 -78 3 0
-46 c0 -43 1 -45 30 -45 28 0 30 -2 30 -40 0 -48 -15 -57 -68 -44 -54 14 -75
50 -75 131 -1 89 19 128 73 144 29 9 53 9 85 2 l45 -10 10 36 c11 42 6 50 -46
62 -46 10 -86 10 -131 -1z"/>
<path d="M1470 230 l0 -221 48 3 47 3 3 92 3 93 59 0 59 0 3 -93 3 -92 45 0
45 0 3 218 2 217 -50 0 -50 0 0 -80 0 -80 -62 0 -63 0 0 77 0 78 -47 3 -48 3
0 -221z"/>
<path d="M2150 230 l0 -220 28 0 c15 0 32 4 38 10 6 6 25 4 54 -6 54 -19 112
-6 134 29 49 76 41 204 -16 253 -26 21 -39 25 -72 22 -23 -3 -49 -8 -58 -12
-16 -7 -18 -1 -18 68 l0 76 -45 0 -45 0 0 -220z m180 -9 c5 -11 10 -38 10 -61
0 -54 -15 -80 -45 -80 -50 0 -55 8 -55 79 0 37 3 71 7 74 15 16 72 7 83 -12z"/>
<path d="M1105 424 c-39 -40 14 -110 60 -80 23 16 32 61 14 82 -15 19 -54 18
-74 -2z"/>
<path d="M2783 367 c-37 -38 -53 -62 -53 -80 0 -38 14 -33 47 15 15 22 40 50
55 61 57 42 113 -14 71 -71 -11 -15 -39 -40 -61 -55 -48 -33 -53 -47 -15 -47
18 0 42 16 80 53 64 65 70 101 24 148 -47 46 -83 40 -148 -24z"/>
<path d="M1270 355 c0 -39 -3 -45 -25 -51 -21 -5 -25 -12 -25 -40 0 -30 3 -34
25 -34 25 0 25 -1 25 -83 0 -58 5 -89 15 -104 19 -26 76 -44 116 -36 25 5 29
10 29 39 0 29 -4 34 -23 34 -37 0 -47 19 -47 87 l0 63 35 0 c34 0 35 1 35 40
0 39 -1 40 -35 40 -35 0 -35 0 -35 45 l0 45 -45 0 -45 0 0 -45z"/>
<path d="M1092 163 l3 -148 45 0 45 0 3 148 3 147 -51 0 -51 0 3 -147z"/>
<path d="M1830 187 c0 -141 8 -160 72 -177 32 -9 50 -8 87 4 30 10 48 11 52 5
3 -6 19 -9 35 -7 l29 3 0 145 0 145 -47 3 -48 3 0 -109 c0 -116 -3 -122 -50
-122 -31 0 -40 32 -40 134 l0 96 -45 0 -45 0 0 -123z"/>
<path d="M2735 220 c-55 -55 -67 -72 -57 -82 10 -10 27 2 82 57 66 65 77 84
54 92 -5 2 -41 -28 -79 -67z"/>
<path d="M2593 177 c-64 -65 -70 -101 -24 -148 47 -46 83 -40 148 24 37 38 53
62 53 80 0 38 -14 33 -47 -15 -15 -22 -40 -50 -55 -61 -57 -42 -113 14 -71 71
11 15 39 40 61 55 48 33 53 47 15 47 -18 0 -42 -16 -80 -53z"/>
</g>
</svg>
